<?xml version="1.0" standalone="no"?>
<!DOCTYPE svg PUBLIC "-//W3C//DTD SVG 20010904//EN"
 "http://www.w3.org/TR/2001/REC-SVG-20010904/DTD/svg10.dtd">
<svg version="1.0" xmlns="http://www.w3.org/2000/svg"
 width="943.000000pt" height="268.000000pt" viewBox="0 0 943.000000 268.000000"
 preserveAspectRatio="xMidYMid meet">
<metadata>
Created by potrace 1.15, written by Peter Selinger 2001-2017
</metadata>
<g transform="translate(0.000000,268.000000) scale(0.100000,-0.100000)"
fill="#000000" stroke="none">
<path d="M290 2360 l0 -140 25 0 25 0 0 115 0 115 120 0 120 0 0 25 0 25 -145
0 -145 0 0 -140z"/>
<path d="M3780 2475 l0 -25 125 0 125 0 0 -115 0 -115 25 0 25 0 0 140 0 140
-150 0 -150 0 0 -25z"/>
<path d="M1024 2350 c-209 -31 -375 -178 -438 -389 -20 -70 -21 -218 -1 -296
46 -177 195 -330 369 -380 46 -13 85 -16 171 -13 107 4 116 6 200 46 142 68
245 190 289 341 20 69 21 218 1 294 -53 205 -231 368 -430 397 -78 11 -88 11
-161 0z m194 -253 c52 -26 97 -75 126 -136 17 -37 21 -66 21 -146 0 -87 -3
-107 -26 -155 -50 -107 -128 -159 -237 -160 -108 0 -180 44 -233 143 -33 59
-34 67 -34 168 0 98 2 110 30 164 35 68 107 129 170 144 55 13 131 4 183 -22z"/>
<path d="M1770 1810 l0 -540 125 0 125 0 2 299 3 300 240 -299 240 -299 103
-1 102 0 0 540 0 540 -125 0 -125 0 -2 -306 -3 -306 -243 306 -243 306 -100 0
-99 0 0 -540z"/>
<path d="M2910 1810 l0 -540 380 0 380 0 0 115 0 115 -255 0 -255 0 0 110 0
110 210 0 210 0 0 105 0 105 -210 0 -210 0 0 95 0 95 245 0 245 0 0 115 0 115
-370 0 -370 0 0 -540z"/>
<path d="M4350 1795 l0 -535 365 0 365 0 0 50 0 50 -310 0 -310 0 0 485 0 485
-55 0 -55 0 0 -535z"/>
<path d="M5220 1795 l0 -535 360 0 360 0 0 50 0 50 -305 0 -305 0 0 195 0 195
260 0 260 0 0 50 0 50 -260 0 -260 0 0 190 0 190 300 0 300 0 0 50 0 50 -355
0 -355 0 0 -535z"/>
<path d="M6467 2323 c-4 -6 -327 -777 -430 -1025 l-16 -38 63 0 64 0 67 165
68 165 234 -2 235 -3 66 -162 67 -163 63 0 c35 0 62 4 60 9 -1 4 -102 245
-222 535 l-219 526 -48 0 c-26 0 -50 -3 -52 -7z m153 -388 c51 -126 95 -236
97 -242 4 -10 -40 -13 -202 -13 -114 0 -205 4 -203 8 75 191 204 490 209 484
3 -4 48 -110 99 -237z"/>
<path d="M7150 1796 l0 -536 55 0 55 0 0 195 0 195 154 0 153 0 124 -195 124
-195 68 0 67 0 -23 38 c-13 20 -72 112 -129 203 l-106 167 38 11 c54 16 124
83 157 149 25 51 28 68 28 157 0 89 -3 106 -27 156 -33 67 -96 131 -158 162
-43 21 -59 22 -312 25 l-268 3 0 -535z m493 423 c47 -13 112 -70 138 -121 60
-117 8 -277 -105 -329 -35 -16 -68 -19 -228 -19 l-188 0 0 240 0 240 173 0
c94 0 189 -5 210 -11z"/>
<path d="M8130 1796 l0 -536 55 0 55 0 2 426 3 425 339 -425 339 -426 54 0 53
0 0 535 0 535 -60 0 -60 0 -2 -431 -3 -431 -341 428 -340 429 -47 3 -47 3 0
-535z"/>
<path d="M290 1205 l0 -145 145 0 145 0 0 25 0 25 -120 0 -120 0 0 120 0 120
-25 0 -25 0 0 -145z"/>
<path d="M4030 1230 l0 -120 -125 0 -125 0 0 -25 0 -25 150 0 150 0 0 145 0
145 -25 0 -25 0 0 -120z"/>
<path d="M290 915 c0 -13 493 -15 4375 -15 3882 0 4375 2 4375 15 0 13 -493
15 -4375 15 -3882 0 -4375 -2 -4375 -15z"/>
<path d="M6985 691 c-77 -20 -105 -54 -105 -127 0 -70 28 -94 146 -122 48 -12
98 -29 111 -37 47 -31 38 -104 -17 -132 -55 -28 -175 -6 -222 40 -14 14 -18
15 -28 2 -16 -19 0 -39 51 -66 85 -43 207 -33 261 21 23 24 28 37 28 78 0 71
-39 104 -150 128 -111 24 -140 43 -140 92 0 54 32 82 101 88 44 5 63 1 101
-19 41 -21 50 -22 60 -10 13 16 9 20 -45 49 -34 18 -111 26 -152 15z"/>
<path d="M280 675 c0 -12 16 -15 85 -15 l85 0 0 -215 c0 -208 1 -215 20 -215
19 0 20 7 20 215 l0 215 85 0 c69 0 85 3 85 15 0 13 -28 15 -190 15 -162 0
-190 -2 -190 -15z"/>
<path d="M2790 461 c0 -223 1 -231 20 -231 19 0 20 8 22 184 l3 185 83 -145
c46 -79 90 -144 97 -144 7 0 50 65 96 144 l84 144 3 -184 c2 -176 3 -184 22
-184 19 0 20 8 20 230 0 221 -1 230 -19 230 -14 0 -36 -27 -77 -97 -31 -54
-73 -126 -93 -159 l-36 -62 -92 157 c-66 114 -96 157 -112 159 -21 3 -21 2
-21 -227z"/>
<path d="M6530 630 c0 -57 -1 -60 -25 -60 -16 0 -25 -6 -25 -15 0 -9 9 -15 25
-15 l25 0 0 -136 c0 -74 5 -144 10 -154 22 -40 130 -33 130 9 0 17 -3 18 -35
9 -59 -19 -65 -6 -65 143 l0 129 40 0 c29 0 40 4 40 15 0 11 -11 15 -40 15
l-40 0 0 60 c0 53 -2 60 -20 60 -18 0 -20 -7 -20 -60z"/>
<path d="M7940 630 c0 -57 -1 -60 -25 -60 -16 0 -25 -6 -25 -15 0 -9 9 -15 25
-15 l25 0 0 -136 c0 -74 5 -144 10 -154 22 -40 130 -33 130 9 0 17 -3 18 -35
9 -59 -19 -65 -6 -65 143 l0 129 40 0 c29 0 40 4 40 15 0 11 -11 15 -40 15
l-40 0 0 60 c0 53 -2 60 -20 60 -18 0 -20 -7 -20 -60z"/>
<path d="M923 570 c-47 -11 -83 -37 -77 -55 7 -18 2 -19 49 5 82 42 165 9 165
-65 l0 -33 -64 5 c-110 9 -176 -30 -176 -104 0 -26 8 -43 34 -69 28 -28 41
-34 78 -34 27 0 63 9 91 24 34 17 47 20 47 10 0 -7 9 -18 20 -24 16 -9 22 -8
26 5 4 9 2 21 -5 28 -7 7 -11 53 -11 123 0 106 -1 114 -26 143 -14 17 -42 35
-62 41 -41 11 -44 11 -89 0z m106 -176 c28 -6 31 -10 31 -45 0 -46 -26 -75
-83 -90 -45 -12 -91 2 -107 32 -40 74 41 126 159 103z"/>
<path d="M1464 570 c-18 -6 -46 -23 -63 -39 l-31 -29 0 34 c0 24 -5 34 -15 34
-13 0 -15 -26 -15 -170 0 -163 1 -170 20 -170 19 0 20 7 20 115 l0 114 34 35
c37 36 82 52 117 41 35 -12 49 -63 49 -190 0 -108 1 -115 20 -115 19 0 20 7
20 118 0 127 -10 180 -39 206 -23 21 -76 28 -117 16z"/>
<path d="M1964 570 c-18 -6 -46 -23 -63 -39 l-31 -29 0 34 c0 24 -5 34 -15 34
-13 0 -15 -26 -15 -170 0 -163 1 -170 20 -170 19 0 20 7 20 115 l0 114 34 35
c37 36 82 52 117 41 35 -12 49 -63 49 -190 0 -108 1 -115 20 -115 19 0 20 7
20 118 0 127 -10 180 -39 206 -23 21 -76 28 -117 16z"/>
<path d="M2294 569 c-56 -16 -114 -103 -114 -169 0 -36 23 -93 51 -125 55 -62
147 -71 209 -19 l30 26 0 -47 c0 -40 -5 -52 -34 -81 -30 -30 -40 -34 -88 -34
-52 0 -88 15 -115 47 -8 10 -17 12 -27 6 -42 -23 63 -93 139 -93 56 0 121 32
145 72 18 30 20 50 20 226 0 185 -1 192 -20 192 -15 0 -20 -7 -20 -27 0 -24
-1 -25 -18 -10 -23 21 -86 47 -109 46 -10 0 -32 -5 -49 -10z m106 -44 c51 -27
70 -61 70 -129 0 -69 -14 -97 -60 -121 -48 -25 -95 -19 -135 16 -73 64 -64
180 18 229 38 24 68 25 107 5z"/>
<path d="M3413 570 c-47 -11 -83 -37 -77 -55 7 -18 2 -19 49 5 82 42 165 9
165 -65 l0 -33 -64 5 c-110 9 -176 -30 -176 -104 0 -26 8 -43 34 -69 28 -28
41 -34 78 -34 27 0 63 9 91 24 34 17 47 20 47 10 0 -7 9 -18 20 -24 16 -9 22
-8 26 5 4 9 2 21 -5 28 -7 7 -11 53 -11 123 0 106 -1 114 -26 143 -14 17 -42
35 -62 41 -41 11 -44 11 -89 0z m106 -176 c28 -6 31 -10 31 -45 0 -46 -26 -75
-83 -90 -45 -12 -91 2 -107 32 -40 74 41 126 159 103z"/>
<path d="M3814 570 c-18 -6 -46 -23 -63 -39 l-31 -29 0 34 c0 24 -5 34 -15 34
-13 0 -15 -26 -15 -170 0 -163 1 -170 20 -170 19 0 20 7 20 115 l0 114 34 35
c37 36 82 52 117 41 35 -12 49 -63 49 -190 0 -108 1 -115 20 -115 19 0 20 7
20 118 0 127 -10 180 -39 206 -23 21 -76 28 -117 16z"/>
<path d="M4133 570 c-47 -11 -83 -37 -77 -55 7 -18 2 -19 49 5 82 42 165 9
165 -65 l0 -33 -64 5 c-110 9 -176 -30 -176 -104 0 -26 8 -43 34 -69 28 -28
41 -34 78 -34 27 0 63 9 91 24 34 17 47 20 47 10 0 -7 9 -18 20 -24 16 -9 22
-8 26 5 4 9 2 21 -5 28 -7 7 -11 53 -11 123 0 106 -1 114 -26 143 -14 17 -42
35 -62 41 -41 11 -44 11 -89 0z m106 -176 c28 -6 31 -10 31 -45 0 -46 -26 -75
-83 -90 -45 -12 -91 2 -107 32 -40 74 41 126 159 103z"/>
<path d="M4494 569 c-56 -16 -114 -103 -114 -169 0 -36 23 -93 51 -125 55 -62
147 -71 209 -19 l30 26 0 -47 c0 -40 -5 -52 -34 -81 -30 -30 -40 -34 -88 -34
-52 0 -88 15 -115 47 -8 10 -17 12 -27 6 -42 -23 63 -93 139 -93 56 0 121 32
145 72 18 30 20 50 20 226 0 185 -1 192 -20 192 -15 0 -20 -7 -20 -27 0 -24
-1 -25 -18 -10 -23 21 -86 47 -109 46 -10 0 -32 -5 -49 -10z m106 -44 c51 -27
70 -61 70 -129 0 -69 -14 -97 -60 -121 -48 -25 -95 -19 -135 16 -73 64 -64
180 18 229 38 24 68 25 107 5z"/>
<path d="M4895 565 c-167 -59 -138 -322 38 -342 59 -7 110 11 142 49 24 28 25
32 10 41 -12 6 -22 2 -39 -16 -12 -13 -39 -30 -59 -36 -33 -11 -43 -10 -80 8
-42 20 -77 64 -77 95 0 14 19 16 145 16 l145 0 0 29 c0 68 -56 143 -120 161
-45 13 -57 12 -105 -5z m116 -40 c30 -16 69 -68 69 -92 0 -10 -32 -13 -125
-13 -121 0 -125 1 -125 21 0 12 17 39 39 60 44 44 88 51 142 24z"/>
<path d="M5293 569 c-17 -5 -43 -23 -57 -40 l-26 -31 0 36 c0 25 -4 36 -15 36
-13 0 -15 -26 -15 -170 0 -163 1 -170 20 -170 19 0 20 7 20 115 0 113 0 115
31 149 43 50 92 58 127 22 26 -25 27 -31 31 -156 3 -120 4 -130 22 -130 18 0
19 9 19 115 0 113 0 115 31 149 43 50 92 58 127 22 26 -25 27 -31 30 -156 3
-123 5 -130 24 -130 19 0 20 5 16 138 -2 112 -6 143 -21 165 -38 58 -124 59
-181 2 l-34 -33 -11 24 c-10 24 -66 55 -93 53 -7 0 -27 -5 -45 -10z"/>
<path d="M5855 565 c-167 -59 -138 -322 38 -342 59 -7 110 11 142 49 24 28 25
32 10 41 -12 6 -22 2 -39 -16 -12 -13 -39 -30 -59 -36 -33 -11 -43 -10 -80 8
-42 20 -77 64 -77 95 0 14 19 16 145 16 l145 0 0 29 c0 68 -56 143 -120 161
-45 13 -57 12 -105 -5z m116 -40 c30 -16 69 -68 69 -92 0 -10 -32 -13 -125
-13 -121 0 -125 1 -125 21 0 12 17 39 39 60 44 44 88 51 142 24z"/>
<path d="M6274 570 c-18 -6 -46 -23 -63 -39 l-31 -29 0 34 c0 24 -5 34 -15 34
-13 0 -15 -26 -15 -170 0 -163 1 -170 20 -170 19 0 20 7 20 115 l0 114 34 35
c37 36 82 52 117 41 35 -12 49 -63 49 -190 0 -108 1 -115 20 -115 19 0 20 7
20 118 0 127 -10 180 -39 206 -23 21 -76 28 -117 16z"/>
<path d="M7666 570 c-41 -13 -65 -38 -72 -76 -10 -54 14 -80 98 -104 40 -12
83 -28 96 -36 30 -19 29 -59 -2 -79 -43 -28 -86 -29 -140 -1 -49 25 -66 26
-66 3 0 -28 63 -52 138 -52 71 0 75 1 103 33 35 39 39 90 10 116 -11 10 -54
28 -96 41 -85 27 -105 39 -105 66 0 55 109 81 163 39 22 -17 26 -18 37 -5 11
13 10 18 -6 30 -40 31 -104 41 -158 25z"/>
<path d="M8205 565 c-167 -59 -138 -322 38 -342 59 -7 110 11 142 49 24 28 25
32 10 41 -12 6 -22 2 -39 -16 -12 -13 -39 -30 -59 -36 -33 -11 -43 -10 -80 8
-42 20 -77 64 -77 95 0 14 19 16 145 16 l145 0 0 29 c0 68 -56 143 -120 161
-45 13 -57 12 -105 -5z m116 -40 c30 -16 69 -68 69 -92 0 -10 -32 -13 -125
-13 -121 0 -125 1 -125 21 0 12 17 39 39 60 44 44 88 51 142 24z"/>
<path d="M8613 569 c-17 -5 -43 -23 -57 -40 l-26 -31 0 36 c0 25 -4 36 -15 36
-13 0 -15 -26 -15 -170 0 -163 1 -170 20 -170 19 0 20 7 20 115 0 113 0 115
31 149 43 50 92 58 127 22 26 -25 27 -31 31 -156 3 -120 4 -130 22 -130 18 0
19 9 19 115 0 113 0 115 31 149 43 50 92 58 127 22 26 -25 27 -31 30 -156 3
-123 5 -130 24 -130 19 0 20 5 16 138 -2 112 -6 143 -21 165 -38 58 -124 59
-181 2 l-34 -33 -11 24 c-10 24 -66 55 -93 53 -7 0 -27 -5 -45 -10z"/>
<path d="M640 400 c0 -163 1 -170 20 -170 19 0 20 7 20 116 0 114 0 116 29
145 16 16 43 32 60 35 21 5 31 12 31 25 0 27 -39 24 -84 -6 l-36 -24 0 24 c0
18 -5 25 -20 25 -19 0 -20 -7 -20 -170z"/>
<path d="M7230 565 c0 -4 32 -78 70 -165 39 -87 70 -165 70 -174 0 -31 -44
-106 -62 -106 -11 0 -18 -7 -18 -20 0 -23 36 -28 62 -8 13 10 94 194 205 466
4 10 -1 13 -17 10 -19 -2 -31 -24 -71 -123 -27 -66 -54 -131 -60 -145 -10 -23
-16 -13 -74 120 -50 112 -69 146 -85 148 -11 2 -20 0 -20 -3z"/>
</g>
</svg>
