<?xml version="1.0" standalone="no"?>
<!DOCTYPE svg PUBLIC "-//W3C//DTD SVG 20010904//EN"
 "http://www.w3.org/TR/2001/REC-SVG-20010904/DTD/svg10.dtd">
<svg version="1.0" xmlns="http://www.w3.org/2000/svg"
 width="943.000000pt" height="268.000000pt" viewBox="0 0 943.000000 268.000000"
 preserveAspectRatio="xMidYMid meet">
<metadata>
Created by potrace 1.15, written by Peter Selinger 2001-2017
</metadata>
<g transform="translate(0.000000,268.000000) scale(0.100000,-0.100000)"
fill="#000000" stroke="none">
<path d="M290 2360 l0 -140 25 0 25 0 0 115 0 115 120 0 120 0 0 25 0 25 -145
0 -145 0 0 -140z"/>
<path d="M3780 2475 l0 -25 125 0 125 0 0 -115 0 -115 25 0 25 0 0 140 0 140
-150 0 -150 0 0 -25z"/>
<path d="M1024 2350 c-209 -31 -375 -178 -438 -389 -20 -70 -21 -218 -1 -296
46 -177 195 -330 369 -380 46 -13 85 -16 171 -13 107 4 116 6 200 46 142 68
245 190 289 341 20 69 21 218 1 294 -53 205 -231 368 -430 397 -78 11 -88 11
-161 0z m194 -253 c52 -26 97 -75 126 -136 17 -37 21 -66 21 -146 0 -87 -3
-107 -26 -155 -50 -107 -128 -159 -237 -160 -108 0 -180 44 -233 143 -33 59
-34 67 -34 168 0 98 2 110 30 164 35 68 107 129 170 144 55 13 131 4 183 -22z"/>
<path d="M1770 1810 l0 -540 125 0 125 0 2 299 3 300 240 -299 240 -299 103
-1 102 0 0 540 0 540 -125 0 -125 0 -2 -306 -3 -306 -243 306 -243 306 -100 0
-99 0 0 -540z"/>
<path d="M2910 1810 l0 -540 380 0 380 0 0 115 0 115 -255 0 -255 0 0 110 0
110 210 0 210 0 0 105 0 105 -210 0 -210 0 0 95 0 95 245 0 245 0 0 115 0 115
-370 0 -370 0 0 -540z"/>
<path d="M4350 1795 l0 -535 365 0 365 0 0 50 0 50 -310 0 -310 0 0 485 0 485
-55 0 -55 0 0 -535z"/>
<path d="M5220 1795 l0 -535 360 0 360 0 0 50 0 50 -305 0 -305 0 0 195 0 195
260 0 260 0 0 50 0 50 -260 0 -260 0 0 190 0 190 300 0 300 0 0 50 0 50 -355
0 -355 0 0 -535z"/>
<path d="M6467 2323 c-4 -6 -327 -777 -430 -1025 l-16 -38 63 0 64 0 67 165
68 165 234 -2 235 -3 66 -162 67 -163 63 0 c35 0 62 4 60 9 -1 4 -102 245
-222 535 l-219 526 -48 0 c-26 0 -50 -3 -52 -7z m153 -388 c51 -126 95 -236
97 -242 4 -10 -40 -13 -202 -13 -114 0 -205 4 -203 8 75 191 204 490 209 484
3 -4 48 -110 99 -237z"/>
<path d="M7150 1796 l0 -536 55 0 55 0 0 195 0 195 154 0 153 0 124 -195 124
-195 68 0 67 0 -23 38 c-13 20 -72 112 -129 203 l-106 167 38 11 c54 16 124
83 157 149 25 51 28 68 28 157 0 89 -3 106 -27 156 -33 67 -96 131 -158 162
-43 21 -59 22 -312 25 l-268 3 0 -535z m493 423 c47 -13 112 -70 138 -121 60
-117 8 -277 -105 -329 -35 -16 -68 -19 -228 -19 l-188 0 0 240 0 240 173 0
c94 0 189 -5 210 -11z"/>
<path d="M8130 1796 l0 -536 55 0 55 0 2 426 3 425 339 -425 339 -426 54 0 53
0 0 535 0 535 -60 0 -60 0 -2 -431 -3 -431 -341 428 -340 429 -47 3 -47 3 0
-535z"/>
<path d="M290 1205 l0 -145 145 0 145 0 0 25 0 25 -120 0 -120 0 0 120 0 120
-25 0 -25 0 0 -145z"/>
<path d="M4030 1230 l0 -120 -125 0 -125 0 0 -25 0 -25 150 0 150 0 0 145 0
145 -25 0 -25 0 0 -120z"/>
<path d="M290 915 c0 -13 493 -15 4375 -15 3882 0 4375 2 4375 15 0 13 -493
15 -4375 15 -3882 0 -4375 -2 -4375 -15z"/>
<path d="M3010 455 c0 -238 1 -245 20 -245 13 0 20 7 20 19 0 18 3 18 46 -6
83 -47 181 -17 224 67 40 78 17 205 -43 245 -69 45 -136 43 -192 -7 l-35 -30
0 101 c0 94 -1 101 -20 101 -19 0 -20 -7 -20 -245z m237 43 c40 -38 56 -76 51
-128 -10 -102 -103 -159 -188 -115 -46 24 -60 52 -60 125 0 53 4 70 23 92 50
61 125 72 174 26z"/>
<path d="M7030 599 l0 -101 -34 30 c-47 41 -102 49 -159 24 -52 -23 -83 -62
-97 -126 -35 -156 115 -278 246 -201 41 24 43 24 49 6 6 -20 32 -36 37 -23 2
4 2 116 0 250 -3 232 -4 242 -23 242 -18 0 -19 -8 -19 -101z m-74 -85 c54 -26
74 -62 74 -134 0 -73 -8 -91 -54 -119 -62 -39 -136 -21 -175 42 -43 69 -18
172 50 209 42 22 61 23 105 2z"/>
<path d="M2270 450 l0 -240 160 0 c136 0 160 2 160 15 0 13 -22 15 -140 15
l-140 0 0 225 c0 218 -1 225 -20 225 -19 0 -20 -7 -20 -240z"/>
<path d="M4550 451 l0 -241 110 0 c152 0 205 24 253 115 16 31 21 59 21 120 1
105 -27 166 -98 209 -44 28 -56 30 -167 34 l-119 4 0 -241z m219 189 c112 -32
162 -191 98 -305 -40 -70 -95 -94 -219 -95 l-58 0 0 205 0 205 73 0 c39 0 88
-4 106 -10z"/>
<path d="M2720 559 c-48 -14 -82 -41 -71 -57 7 -11 16 -9 47 7 57 31 109 28
145 -8 21 -21 29 -39 29 -64 l0 -35 -42 10 c-52 12 -120 4 -158 -19 -57 -33
-67 -104 -22 -154 24 -27 37 -33 83 -36 44 -4 63 0 102 21 43 23 47 24 47 7 0
-22 29 -36 44 -21 7 7 7 16 -2 30 -7 12 -12 60 -12 127 0 66 -5 117 -13 132
-28 56 -103 81 -177 60z m136 -186 c9 -3 14 -20 14 -43 0 -45 -29 -74 -90 -90
-45 -12 -81 -1 -104 32 -32 45 -12 89 50 108 27 9 100 5 130 -7z"/>
<path d="M3689 560 c-135 -40 -167 -239 -54 -326 63 -48 151 -44 212 9 64 56
81 142 44 222 -37 81 -120 120 -202 95z m101 -45 c37 -19 70 -66 77 -109 13
-79 -53 -166 -125 -166 -83 0 -137 66 -130 157 9 100 98 159 178 118z"/>
<path d="M4100 555 c-19 -9 -45 -26 -57 -37 l-23 -21 0 31 c0 25 -4 32 -20 32
-19 0 -20 -7 -20 -175 0 -168 1 -175 20 -175 19 0 20 7 20 116 l0 116 38 38
c24 25 51 41 76 45 33 7 42 4 64 -19 26 -26 27 -31 30 -161 4 -125 5 -135 23
-135 18 0 19 9 19 123 0 133 -10 185 -39 211 -27 25 -89 29 -131 11z"/>
<path d="M5109 560 c-90 -27 -144 -127 -119 -222 16 -59 44 -95 93 -119 73
-38 184 -11 217 52 18 33 -16 36 -49 5 -68 -65 -164 -48 -207 36 -30 57 -28
58 136 58 l150 0 0 29 c0 109 -115 193 -221 161z m116 -50 c30 -19 65 -72 65
-99 0 -7 -42 -11 -130 -11 -143 0 -145 1 -115 61 34 64 118 87 180 49z"/>
<path d="M5504 551 c-23 -11 -47 -27 -53 -38 -9 -15 -10 -13 -11 15 0 25 -4
32 -20 32 -19 0 -20 -7 -20 -175 0 -168 1 -175 20 -175 19 0 20 7 20 113 0
103 2 115 24 148 44 65 118 76 153 22 14 -20 18 -55 21 -155 4 -117 6 -128 23
-128 17 0 19 9 19 113 0 126 13 163 69 192 42 21 68 19 96 -10 24 -23 25 -29
25 -160 l0 -135 26 0 27 0 -5 138 c-5 164 -17 195 -78 213 -33 10 -47 9 -85
-6 -25 -9 -53 -28 -62 -41 l-16 -25 -17 29 c-17 28 -64 52 -99 52 -9 0 -35 -9
-57 -19z"/>
<path d="M6080 559 c-48 -14 -82 -41 -71 -57 7 -11 16 -9 47 7 57 31 109 28
145 -8 21 -21 29 -39 29 -64 l0 -35 -42 10 c-52 12 -120 4 -158 -19 -57 -33
-67 -104 -22 -154 24 -27 37 -33 83 -36 44 -4 63 0 102 21 43 23 47 24 47 7 0
-22 29 -36 44 -21 7 7 7 16 -2 30 -7 12 -12 60 -12 127 0 66 -5 117 -13 132
-28 56 -103 81 -177 60z m136 -186 c9 -3 14 -20 14 -43 0 -45 -29 -74 -90 -90
-45 -12 -81 -1 -104 32 -32 45 -12 89 50 108 27 9 100 5 130 -7z"/>
<path d="M6490 555 c-19 -9 -45 -26 -57 -37 l-23 -21 0 31 c0 25 -4 32 -20 32
-19 0 -20 -7 -20 -175 0 -168 1 -175 20 -175 19 0 20 7 20 116 l0 116 38 38
c24 25 51 41 76 45 33 7 42 4 64 -19 26 -26 27 -31 30 -161 4 -125 5 -135 23
-135 18 0 19 9 19 123 0 133 -10 185 -39 211 -27 25 -89 29 -131 11z"/>
</g>
</svg>
